<svg xmlns="http://www.w3.org/2000/svg" width="24" height="24" viewBox="0 0 24 24" fill="none">
  <g clip-path="url(#clip0_48_11603)">
    <rect width="24" height="24" rx="12" fill="#1F8FFF"/>
    <path d="M12.0612 15.2854C9.84555 15.2854 8.1515 12.6192 8.1515 9.24232C8.1515 5.86597 9.56303 5.38379 12.0612 5.38379C14.5593 5.38379 15.8486 5.86597 15.8486 9.24232C15.8486 12.6192 14.0758 15.2854 12.0612 15.2854ZM16.5039 18.3673C16.6859 18.666 16.5826 19.0517 16.274 19.2276C16.1703 19.2866 16.0567 19.3145 15.9448 19.3145C15.7226 19.3145 15.5058 19.204 15.3846 19.005C15.1755 18.6628 14.9614 18.4193 14.7202 18.1967C14.4789 17.9752 14.2051 17.7768 13.8916 17.5456C13.7384 17.4335 13.5857 17.3364 13.4336 17.2538C13.4515 17.286 13.4695 17.3187 13.4879 17.3525C13.928 18.1699 14.3822 19.3043 14.3844 20.5964C14.3844 20.9429 14.0937 21.2239 13.7351 21.2239C13.376 21.2239 13.0853 20.9429 13.0853 20.5964C13.0875 19.6138 12.7311 18.6687 12.3551 17.9683C12.2334 17.7398 12.1106 17.5381 11.9998 17.3697C11.8949 17.5301 11.7787 17.7205 11.6624 17.935C11.2804 18.6387 10.9121 19.5988 10.9142 20.5964C10.9142 20.9429 10.6236 21.2239 10.265 21.2239C9.9064 21.2239 9.61573 20.9429 9.61573 20.5964C9.6179 19.3043 10.0716 18.1699 10.5122 17.3525C10.5301 17.3187 10.5481 17.286 10.5665 17.2538C10.4139 17.3364 10.2617 17.4335 10.1085 17.5456C9.79448 17.7768 9.52065 17.9752 9.27996 18.1967C9.03873 18.4193 8.82412 18.6628 8.61494 19.0056C8.43293 19.3043 8.03469 19.4035 7.72608 19.2276C7.41694 19.0517 7.31425 18.666 7.49626 18.3673C7.76792 17.9205 8.07326 17.5719 8.38621 17.2855C8.6997 16.9985 9.01537 16.7722 9.3218 16.5458C9.46686 16.4386 9.61573 16.3399 9.76786 16.2503C9.61573 16.1607 9.46686 16.0615 9.3218 15.9542C8.62092 15.4377 8.01187 14.741 7.49626 13.8952C7.31425 13.5959 7.41694 13.2108 7.72608 13.0349C8.03469 12.8589 8.43293 12.9582 8.61494 13.2569C9.06155 13.9901 9.56846 14.5576 10.108 14.9545C10.6866 15.3777 11.2549 15.5874 11.8395 15.6206C11.8928 15.619 11.9465 15.6174 11.9998 15.6174C12.0536 15.6174 12.1068 15.619 12.1601 15.6206C12.7447 15.5874 13.3135 15.3777 13.8916 14.9545C14.4311 14.5576 14.9386 13.9901 15.3846 13.2569C15.5672 12.9582 15.9649 12.8589 16.274 13.0349C16.5826 13.2108 16.6859 13.5959 16.5039 13.8946C15.9883 14.741 15.3787 15.4377 14.6778 15.9542C14.5327 16.0615 14.3839 16.1607 14.2323 16.2503C14.3839 16.3399 14.5327 16.4386 14.6778 16.5458C14.9848 16.7722 15.2999 16.9985 15.6139 17.2855C15.9269 17.5719 16.2317 17.9205 16.5039 18.3673ZM11.1457 13.0955C10.7871 13.0955 10.4964 13.3771 10.4964 13.7236C10.4964 14.0711 10.7871 14.3522 11.1457 14.3522C11.5043 14.3522 11.795 14.0711 11.795 13.7236C11.795 13.3771 11.5043 13.0955 11.1457 13.0955ZM12.8539 13.0955C12.4953 13.0955 12.2046 13.3771 12.2046 13.7236C12.2046 14.0711 12.4953 14.3522 12.8539 14.3522C13.2125 14.3522 13.5031 14.0711 13.5031 13.7236C13.5031 13.3771 13.2125 13.0955 12.8539 13.0955Z" fill="white"/>
    <path d="M15.7734 6.39844C15.7734 5.04657 14.9433 3.88978 13.7656 3.4063L13.0781 4.78125V2.89453C13.0781 2.82305 13.0497 2.75449 12.9992 2.70394C12.9486 2.6534 12.8801 2.625 12.8086 2.625H11.1914C11.1199 2.625 11.0514 2.6534 11.0008 2.70394C10.9503 2.75449 10.9219 2.82305 10.9219 2.89453V4.78125L10.2344 3.4063C9.05672 3.88978 8.22656 5.04657 8.22656 6.39844V7.47656H15.7734V6.39844ZM16.043 7.73438H7.95703C7.88555 7.73438 7.81699 7.76277 7.76644 7.81332C7.7159 7.86387 7.6875 7.93242 7.6875 8.00391V8.54297C7.6875 8.61445 7.7159 8.68301 7.76644 8.73356C7.81699 8.7841 7.88555 8.8125 7.95703 8.8125H16.043C16.1145 8.8125 16.183 8.7841 16.2336 8.73356C16.2841 8.68301 16.3125 8.61445 16.3125 8.54297V8.00391C16.3125 7.93242 16.2841 7.86387 16.2336 7.81332C16.183 7.76277 16.1145 7.73438 16.043 7.73438Z" fill="white"/>
  </g>
  <defs>
    <clipPath id="clip0_48_11603">
      <rect width="24" height="24" fill="white"/>
    </clipPath>
  </defs>
</svg> 