<svg xmlns="http://www.w3.org/2000/svg" width="20" height="20" viewBox="0 0 20 20" fill="none">
  <path d="M16.7828 2.22031C16.4891 1.92656 16.0141 1.92656 15.7234 2.22031L13.0047 4.93906L11.7828 3.72031C11.5672 3.50469 11.2453 3.44219 10.9641 3.55781C10.6828 3.67344 10.5016 3.94844 10.5016 4.25156V8.75156C10.5016 9.16719 10.8359 9.50156 11.2516 9.50156H15.7516C16.0547 9.50156 16.3297 9.32031 16.4453 9.03906C16.5609 8.75781 16.4984 8.43594 16.2828 8.22031L15.0641 7.00156L17.7828 4.28281C18.0766 3.98906 18.0766 3.51406 17.7828 3.22344L16.7828 2.22031ZM8.75156 10.5016H4.25156C3.94844 10.5016 3.67344 10.6828 3.55781 10.9641C3.44219 11.2453 3.50469 11.5672 3.72031 11.7828L4.93906 13.0016L2.22031 15.7203C1.92656 16.0141 1.92656 16.4891 2.22031 16.7797L3.22031 17.7797C3.51406 18.0734 3.98906 18.0734 4.27969 17.7797L6.99844 15.0609L8.21719 16.2797C8.43281 16.4953 8.75469 16.5578 9.03594 16.4422C9.31719 16.3266 9.49844 16.0516 9.49844 15.7484V11.2516C9.49844 10.8359 9.16406 10.5016 8.74844 10.5016H8.75156Z" fill="#7C8594"/>
</svg> 