<svg xmlns="http://www.w3.org/2000/svg" width="20" height="20" viewBox="0 0 20 20" fill="none">
  <path d="M12.5806 2H17.2258C17.6548 2 18 2.34516 18 2.77419V7.41935C18 7.73226 17.8129 8.01613 17.5226 8.13548C17.2323 8.25484 16.9 8.19032 16.6774 7.96774L15.4194 6.70968L12.6129 9.51613C12.3097 9.81935 11.8194 9.81935 11.5194 9.51613L10.4871 8.48387C10.1839 8.18064 10.1839 7.69032 10.4871 7.39032L13.2935 4.58387L12.0323 3.32258C11.8097 3.1 11.7452 2.76774 11.8645 2.47742C11.9839 2.1871 12.2677 2 12.5806 2ZM7.41935 18H2.77419C2.34516 18 2 17.6548 2 17.2258V12.5806C2 12.2677 2.1871 11.9839 2.47742 11.8645C2.76774 11.7452 3.1 11.8097 3.32258 12.0323L4.58065 13.2903L7.3871 10.4839C7.69032 10.1806 8.18064 10.1806 8.48064 10.4839L9.5129 11.5161C9.81613 11.8194 9.81613 12.3097 9.5129 12.6097L6.70645 15.4161L7.96452 16.6742C8.1871 16.8968 8.25161 17.229 8.13226 17.5194C8.0129 17.8097 7.72903 17.9968 7.41613 17.9968L7.41935 18Z" fill="#7C8594"/>
</svg> 