<svg xmlns="http://www.w3.org/2000/svg" width="40" height="40" viewBox="0 0 40 40">
  <circle cx="20" cy="20" r="18" fill="#1F8FFF" />
  <path d="M20 10c-5.5 0-10 4.5-10 10s4.5 10 10 10 10-4.5 10-10-4.5-10-10-10zm0 18c-4.4 0-8-3.6-8-8s3.6-8 8-8 8 3.6 8 8-3.6 8-8 8z" fill="white" />
  <circle cx="20" cy="20" r="4" fill="white" />
  <rect x="18" y="10" width="4" height="6" rx="2" fill="white" />
  <rect x="18" y="24" width="4" height="6" rx="2" fill="white" />
  <rect x="10" y="18" width="6" height="4" rx="2" fill="white" />
  <rect x="24" y="18" width="6" height="4" rx="2" fill="white" />
</svg> 